# xmcd
#
# Track frame offsets:
# 150
# 20830
# 28325
# 51615
# 68695
# 90182
# 112650
#
# Disc length: 3110 seconds
#
#
# Revision: 2
# Processed by: cddbd v1.5.2PL0 Copyright (c) Steve Scherf et al.
# Submitted via: FreeRIP 2.951 
#
DISCID=550c2407
DTITLE=Hobo-Allen Ginsberg - Üvöltés
DYEAR=1997
DGENRE=Blues
TTITLE0=Gospel Noble Truths (Nemes Igazságok Evangéliuma
TTITLE1=Könnygáz  Rag Tear Gas Rag)
TTITLE2=Guru Blues
TTITLE3=Jöjj vissza Karácsony (Come Back Christmas)
TTITLE4=Kávéház Varsóban (Café in Warsaw)
TTITLE5=Sickness Blues (Betegség blues)
TTITLE6=Üvöltés (Howl) Carl Solomonért - részletek
EXTD=by Lajos
EXTT0=
EXTT1=
EXTT2=
EXTT3=
EXTT4=
EXTT5=
EXTT6=
PLAYORDER=
